<?xml version="1.0" encoding="UTF-8"?>
<svg version="1.1" xmlns="http://www.w3.org/2000/svg" width="576" height="576">
<path d="M0 0 C190.08 0 380.16 0 576 0 C576 190.08 576 380.16 576 576 C385.92 576 195.84 576 0 576 C0 385.92 0 195.84 0 0 Z " fill="#FDFDFD" transform="translate(0,0)"/>
<path d="M0 0 C0.72217209 -0.00817749 1.44434418 -0.01635498 2.18840027 -0.02478027 C4.58359955 -0.04963619 6.97873948 -0.06615212 9.37402344 -0.08056641 C10.60120213 -0.08855192 10.60120213 -0.08855192 11.8531723 -0.09669876 C16.18482018 -0.12343327 20.51643924 -0.14280577 24.84814453 -0.15722656 C29.31839493 -0.17386081 33.78790612 -0.21862671 38.25787735 -0.26959801 C41.69804715 -0.30328884 45.13804203 -0.31480603 48.57836151 -0.32045364 C50.22578317 -0.32716283 51.87319345 -0.3423764 53.52045441 -0.36634445 C55.83065074 -0.39803601 58.13886129 -0.39802779 60.44921875 -0.390625 C62.41873505 -0.40275528 62.41873505 -0.40275528 64.42803955 -0.41513062 C69.08284311 0.38088706 70.67433243 1.88774065 73.98339844 5.19287109 C75.29197241 7.81001904 75.11824522 9.7446756 75.13056946 12.67671204 C75.13772476 13.84180298 75.14488007 15.00689392 75.1522522 16.20729065 C75.1549411 17.49199753 75.15763 18.77670441 75.16040039 20.1003418 C75.16666433 21.4619667 75.17331107 22.82358988 75.18031311 24.18521118 C75.19772902 27.88984982 75.20827644 31.59447555 75.21651864 35.29914498 C75.2216675 37.61317625 75.22774328 39.92720349 75.23402977 42.24123192 C75.25308343 49.47980206 75.26731424 56.71836199 75.27564174 63.95695239 C75.28541614 72.31548668 75.31173998 80.67375629 75.35214263 89.0321973 C75.38229197 95.49086334 75.39710947 101.94945346 75.40042275 108.40818852 C75.40277459 112.26661774 75.41175188 116.12476426 75.43688393 119.98311806 C75.46014935 123.61358962 75.4644044 127.24359204 75.45412254 130.8741188 C75.45339042 132.84007529 75.47249246 134.80600787 75.4921875 136.77186584 C75.48524368 137.94541626 75.47829987 139.11896667 75.47114563 140.32807922 C75.47353398 141.34590642 75.47592234 142.36373362 75.47838306 143.41240406 C74.74549657 147.52923239 72.53881484 150.07565599 69.18138123 152.48721313 C66.02157859 153.50166142 63.13199772 153.46380944 59.81567383 153.48339844 C59.10135696 153.49011566 58.3870401 153.49683289 57.65107727 153.50375366 C55.29433196 153.52272143 52.93787154 153.52665701 50.58105469 153.52880859 C48.9396503 153.53523674 47.29824707 153.54196511 45.65684509 153.54898071 C42.217899 153.56094994 38.77905334 153.56466184 35.34008789 153.56347656 C30.93713027 153.56327324 26.53481718 153.59058977 22.13201237 153.62502098 C18.74247793 153.64727493 15.35309908 153.6513146 11.96349907 153.65025711 C10.34040541 153.65261479 8.71730757 153.66144777 7.09428596 153.67692184 C4.82257224 153.69655498 2.55225457 153.69075598 0.28051758 153.67871094 C-1.65663368 153.68298599 -1.65663368 153.68298599 -3.63291931 153.68734741 C-7.64996902 153.10031358 -9.23705369 152.11749446 -12.01660156 149.19287109 C-13.82547993 145.50125856 -14.2716989 142.52015171 -14.29075623 138.43092346 C-14.30073135 137.27998199 -14.31070648 136.12904053 -14.32098389 134.94322205 C-14.32164856 133.68957352 -14.32231323 132.43592499 -14.32299805 131.14428711 C-14.33062399 129.8035435 -14.33905224 128.46280426 -14.34822083 127.12207031 C-14.37012622 123.4877734 -14.37895902 119.8535606 -14.38404727 116.21920514 C-14.38769465 113.94718702 -14.3939366 111.67519082 -14.40104866 109.40318108 C-14.4255266 101.47296051 -14.43859207 93.54280524 -14.44213867 85.61254883 C-14.44577566 78.2261951 -14.47568662 70.84025645 -14.51754326 63.45402962 C-14.55224979 57.10652704 -14.56768715 50.75916206 -14.56838471 44.41156524 C-14.56917722 40.62295849 -14.57790384 36.83477506 -14.60638237 33.04626656 C-14.63257084 29.48295311 -14.63476488 25.92041385 -14.61872673 22.35704803 C-14.61604991 20.43066544 -14.63808923 18.50429787 -14.66091919 16.57804871 C-14.58097887 7.13156863 -14.58097887 7.13156863 -11.60414124 3.43174744 C-7.54596462 -0.07960186 -5.33333624 0.0523648 0 0 Z " fill="#0F0F10" transform="translate(82.0166015625,201.80712890625)"/>
<path d="M0 0 C0.19648236 10.86309297 -0.37849407 21.5008503 -1.375 32.3125 C-1.51459783 33.87245264 -1.6539184 35.43243011 -1.79296875 36.99243164 C-3.23437144 53.0278789 -5.02262435 68.92268654 -7.51416016 84.82910156 C-7.98560949 87.90607841 -8.43690398 90.98561151 -8.88285828 94.06637573 C-9.30697411 96.98328951 -9.7411296 99.89866678 -10.17660522 102.81390381 C-10.3910796 104.26371578 -10.60159289 105.71411961 -10.80801392 107.1651001 C-11.10066114 109.21602145 -11.40809759 111.26423921 -11.71875 113.3125 C-11.98075195 115.10107422 -11.98075195 115.10107422 -12.24804688 116.92578125 C-13.0142779 120.05837251 -13.73717065 121.72582729 -16 124 C-18.99609375 124.53125 -18.99609375 124.53125 -22.4375 124.5 C-24.13712891 124.51546875 -24.13712891 124.51546875 -25.87109375 124.53125 C-29 124 -29 124 -31.32421875 122.66015625 C-34.015627 118.38778091 -33.97379512 113.89575161 -34.375 108.9375 C-35.42615035 98.33322598 -36.86617669 87.86885509 -38.6875 77.375 C-38.81216644 76.65601532 -38.93683289 75.93703064 -39.0652771 75.19625854 C-41.26578442 62.59776497 -43.69486904 50.04357162 -46.1875 37.5 C-46.3556723 36.64992371 -46.5238446 35.79984741 -46.69711304 34.92401123 C-48.36013865 26.54978366 -50.03781889 18.23950396 -52.4777832 10.04882812 C-53 8 -53 8 -53 5 C-35.44468521 -0.47463039 -18.2103103 -0.25796451 0 0 Z " fill="#FAFAFA" transform="translate(139,216)"/>
<path d="M0 0 C3.53571429 0.53571429 3.53571429 0.53571429 5 2 C5.07226502 3.85287502 5.0838122 5.70833878 5.0625 7.5625 C5.05347656 8.57441406 5.04445313 9.58632813 5.03515625 10.62890625 C5.02355469 11.41136719 5.01195312 12.19382812 5 13 C5.99 12.34 6.98 11.68 8 11 C12.88990708 10.27619276 16.90674993 10.47362034 21.375 12.625 C25.61960874 16.46536029 28.20306851 19.61764274 28.5 25.4375 C28.25377387 30.30456984 26.94815567 33.1208478 24 37 C18.99031248 40.78781251 13.05499964 40.73192303 7 40 C6.01 39.34 5.02 38.68 4 38 C4 38.66 4 39.32 4 40 C2.33388095 40.042721 0.66617115 40.04063832 -1 40 C-3.04513053 37.95486947 -2.16404679 33.69094822 -2.16796875 30.87890625 C-2.17129715 30.06381088 -2.17462555 29.24871552 -2.17805481 28.40892029 C-2.18312742 26.68139207 -2.18546303 24.95385402 -2.18530273 23.22631836 C-2.18748792 20.57714755 -2.20563621 17.92839384 -2.22460938 15.27929688 C-2.22754344 13.6041681 -2.22952815 11.92903733 -2.23046875 10.25390625 C-2.23765427 9.45803604 -2.24483978 8.66216583 -2.25224304 7.84217834 C-2.22882227 2.22882227 -2.22882227 2.22882227 0 0 Z " fill="#141314" transform="translate(462,259)"/>
<path d="M0 0 C0.61875 0.33 1.2375 0.66 1.875 1 C1.875 0.34 1.875 -0.32 1.875 -1 C4.35 -0.505 4.35 -0.505 6.875 0 C6.875 8.91 6.875 17.82 6.875 27 C5.225 27.33 3.575 27.66 1.875 28 C1.875 27.34 1.875 26.68 1.875 26 C1.16214844 26.32097656 0.44929688 26.64195312 -0.28515625 26.97265625 C-5.23144118 28.76202755 -11.1595032 29.33656194 -16.06640625 27.125 C-19.94518014 24.1697437 -21.80100404 20.59504479 -23.125 16 C-23.3881551 10.34216531 -21.78621743 6.37312081 -18.125 2 C-13.09889167 -2.43480147 -6.08596589 -1.94750909 0 0 Z " fill="#0F0F10" transform="translate(450.125,271)"/>
<path d="M0 0 C4.83763525 2.32923179 7.63619663 5.18147775 10 10 C10.82769358 14.62832738 10.49870791 18.65435361 8.375 22.875 C5.67268877 26.43067267 4.24851624 27.66250415 0 29 C-5.0620429 29.65954956 -8.81140812 29.58349056 -13.4375 27.3125 C-16.91513689 24.17414476 -18.726664 22.20693511 -19.31640625 17.4453125 C-19.51077715 12.81803113 -19.34555549 9.71670768 -17.3125 5.5 C-12.13944546 -0.09249139 -7.4447997 -1.06354281 0 0 Z " fill="#0E0D0F" transform="translate(261,270)"/>
<path d="M0 0 C3.93173827 2.03222759 6.38466876 4.14933569 7.9765625 8.26953125 C8.1995326 10.99077995 8.11587891 13.52964185 7.9765625 16.26953125 C5.57596433 17.46983033 4.08295601 17.38412868 1.40625 17.3671875 C0.51035156 17.36396484 -0.38554687 17.36074219 -1.30859375 17.35742188 C-2.24574219 17.34904297 -3.18289063 17.34066406 -4.1484375 17.33203125 C-5.09332031 17.32751953 -6.03820312 17.32300781 -7.01171875 17.31835938 C-9.34902137 17.30655482 -11.68619811 17.29008884 -14.0234375 17.26953125 C-10.97309308 20.73781762 -10.97309308 20.73781762 -6.4609375 21.64453125 C-2.90558006 21.52404482 -2.90558006 21.52404482 -0.0234375 19.26953125 C2.6640625 19.64453125 2.6640625 19.64453125 4.9765625 20.26953125 C4.72320487 23.39427532 4.38568758 24.87404367 2.1015625 27.08203125 C-2.61861101 28.87569718 -7.03855082 28.92832685 -12.0234375 28.26953125 C-16.45462469 26.133066 -19.2524578 23.89375603 -21.0234375 19.26953125 C-21.55084226 14.41301245 -21.6332226 9.9554077 -19.9609375 5.33203125 C-14.45536367 -0.52874089 -7.70963155 -2.78320676 0 0 Z " fill="#100F10" transform="translate(369.0234375,270.73046875)"/>
<path d="M0 0 C0 3 0 3 -1 5 C-1.10198818 6.82800452 -1.1394853 8.65973883 -1.14717102 10.49057007 C-1.15432632 11.65710617 -1.16148163 12.82364227 -1.16885376 14.02552795 C-1.17154266 15.31180588 -1.17423157 16.5980838 -1.17700195 17.92333984 C-1.18326583 19.28658726 -1.18991256 20.64983296 -1.19691467 22.01307678 C-1.21432956 25.72178038 -1.22487742 29.43047109 -1.2331202 33.13920546 C-1.23826858 35.45523904 -1.24434434 37.7712686 -1.25063133 40.08729935 C-1.26968348 47.33067285 -1.28391542 54.57403615 -1.2922433 61.8174299 C-1.30202144 70.18446405 -1.32835567 78.55123406 -1.36874419 86.9181751 C-1.39887742 93.38192103 -1.41370944 99.8455911 -1.41702431 106.30940592 C-1.41937772 110.17171542 -1.42837551 114.03374273 -1.45348549 117.89597702 C-1.47672321 121.52890777 -1.48101719 125.16136966 -1.47072411 128.79435539 C-1.46999073 130.76408263 -1.48911157 132.73378583 -1.50878906 134.70341492 C-1.50184525 135.87559067 -1.49490143 137.04776642 -1.48774719 138.25546265 C-1.49013555 139.27421164 -1.4925239 140.29296062 -1.49498463 141.3425808 C-0.86284764 144.73632855 0.29190143 145.91823855 3 148 C6.39252819 148.60051818 6.39252819 148.60051818 10.25952148 148.50170898 C10.98359192 148.50711197 11.70766235 148.51251495 12.45367432 148.51808167 C14.84323213 148.53057183 17.23158554 148.51407571 19.62109375 148.49609375 C21.28491784 148.49624875 22.94874229 148.49773789 24.61256409 148.50050354 C28.09872409 148.50188771 31.58447278 148.48932812 35.07055664 148.46655273 C39.53399399 148.43818989 43.99674682 148.44089908 48.46023464 148.45364285 C51.89612142 148.46060665 55.33185069 148.4528024 58.76771736 148.44038582 C60.41311094 148.43587657 62.05852146 148.43552992 63.70391655 148.43945122 C66.00665654 148.44236982 68.30846222 148.42582592 70.61108398 148.40405273 C72.57488258 148.39594826 72.57488258 148.39594826 74.57835388 148.38768005 C78.17845745 147.97978038 80.09286688 147.10347377 83 145 C82.08657292 147.28356771 81.42527456 148.70920683 79.36985779 150.11465454 C76.1236303 151.32739936 73.29683154 151.27006276 69.83227539 151.29052734 C69.11795853 151.29724457 68.40364166 151.30396179 67.66767883 151.31088257 C65.31093352 151.32985034 62.9544731 151.33378592 60.59765625 151.3359375 C58.95625187 151.34236564 57.31484863 151.34909402 55.67344666 151.35610962 C52.23450056 151.36807885 48.7956549 151.37179075 45.35668945 151.37060547 C40.95373184 151.37040215 36.55141875 151.39771867 32.14861393 151.43214989 C28.75907949 151.45440384 25.36970064 151.4584435 21.98010063 151.45738602 C20.35700697 151.45974369 18.73390913 151.46857668 17.11088753 151.48405075 C14.83917381 151.50368389 12.56885613 151.49788489 10.29711914 151.48583984 C8.35996788 151.4901149 8.35996788 151.4901149 6.38368225 151.49447632 C2.36663254 150.90744249 0.77954787 149.92462336 -2 147 C-3.81170332 143.30469307 -4.25369363 140.32498334 -4.26742554 136.23132324 C-4.27595551 135.07893661 -4.28448547 133.92654999 -4.29327393 132.73924255 C-4.29236755 131.48402298 -4.29146118 130.22880341 -4.29052734 128.93554688 C-4.29651513 127.59318163 -4.30332125 126.25081983 -4.31088257 124.90846252 C-4.32852063 121.27009068 -4.33323691 117.63181295 -4.33451414 113.99340248 C-4.3359371 111.71938222 -4.34020936 109.44538579 -4.34550858 107.17137146 C-4.36399887 99.23581424 -4.37218011 91.30032414 -4.37060547 83.36474609 C-4.36940309 75.97047887 -4.39052673 68.57650308 -4.4220928 61.18230963 C-4.4482448 54.82972768 -4.45897328 48.47724102 -4.45769465 42.12460566 C-4.45718486 38.33218791 -4.46287757 34.54002947 -4.48405075 30.74766541 C-4.50341628 27.18197025 -4.50356974 23.61678232 -4.48901749 20.05106926 C-4.4859302 18.12094034 -4.5026161 16.19081147 -4.51989746 14.26075745 C-4.51150848 13.10837082 -4.50311951 11.95598419 -4.49447632 10.76867676 C-4.49611062 9.26990368 -4.49611062 9.26990368 -4.49777794 7.74085236 C-3.86870748 4.27708041 -2.35393934 2.55759781 0 0 Z " fill="#2A292A" transform="translate(72,204)"/>
<path d="M0 0 C3.69230769 0.69230769 3.69230769 0.69230769 5 2 C5.0883967 4.3756852 5.11530305 6.72208674 5.09765625 9.09765625 C5.0962413 9.80651474 5.09482635 10.51537323 5.09336853 11.24571228 C5.08775443 13.51801712 5.07519963 15.79022475 5.0625 18.0625 C5.05748681 19.59960796 5.05292359 21.13671745 5.04882812 22.67382812 C5.03778042 26.44925642 5.02050641 30.22461171 5 34 C10.445 33.505 10.445 33.505 16 33 C15.154375 32.0925 14.30875 31.185 13.4375 30.25 C10.97396749 27.32974517 10.97396749 27.32974517 11.1875 24.625 C11.455625 24.08875 11.72375 23.5525 12 23 C17.30724408 23.34526681 19.84214818 26.20728856 23.375 29.8125 C23.93316406 30.34681641 24.49132812 30.88113281 25.06640625 31.43164062 C26.6484375 33.01953125 26.6484375 33.01953125 29 36 C28.71160868 38.10816479 28.52455106 39.47544894 27 41 C22.69352364 41.25342236 18.37554946 41.18522638 14.0625 41.1875 C12.84369141 41.19974609 11.62488281 41.21199219 10.36914062 41.22460938 C8.62600586 41.22750977 8.62600586 41.22750977 6.84765625 41.23046875 C5.2390271 41.23663208 5.2390271 41.23663208 3.59790039 41.24291992 C1 41 1 41 -1 39 C-1.1876103 36.14285536 -1.25557318 33.38434014 -1.23046875 30.52734375 C-1.23001053 29.68909561 -1.22955231 28.85084747 -1.2290802 27.98719788 C-1.22605724 26.21435125 -1.21816963 24.44150729 -1.20581055 22.66870117 C-1.18755065 19.94505478 -1.18530085 17.22174808 -1.18554688 14.49804688 C-1.18063192 12.77864287 -1.1748037 11.05924119 -1.16796875 9.33984375 C-1.16685593 8.52007553 -1.1657431 7.70030731 -1.16459656 6.85569763 C-1.11604801 1.11604801 -1.11604801 1.11604801 0 0 Z " fill="#111112" transform="translate(398,259)"/>
<path d="M0 0 C1.25393555 0.03383789 1.25393555 0.03383789 2.53320312 0.06835938 C4.58541149 0.1269939 6.63669202 0.21666785 8.6875 0.3125 C9.0175 1.6325 9.3475 2.9525 9.6875 4.3125 C6.05030395 6.73729736 3.83046518 6.69912577 -0.5 6.9375 C-1.77230469 7.01226562 -3.04460937 7.08703125 -4.35546875 7.1640625 C-5.33128906 7.21304687 -6.30710937 7.26203125 -7.3125 7.3125 C-6.9825 8.6325 -6.6525 9.9525 -6.3125 11.3125 C-4.66701172 11.35117187 -4.66701172 11.35117187 -2.98828125 11.390625 C-1.53381552 11.4469269 -0.07938997 11.50427377 1.375 11.5625 C2.09623047 11.57667969 2.81746094 11.59085937 3.56054688 11.60546875 C7.30529323 11.77646173 9.37380137 12.12600987 12.6640625 14.08203125 C14.88949961 16.53516752 15.39196275 17.48749787 15.375 20.75 C15.12219667 24.2317913 14.65398823 25.3622599 12.625 28.375 C7.53325168 31.95031965 -0.43891637 30.97995268 -6.3125 30.3125 C-6.9725 29.6525 -7.6325 28.9925 -8.3125 28.3125 C-7.77678571 24.77678571 -7.77678571 24.77678571 -6.3125 23.3125 C-3.96262738 23.07722227 -1.60693961 22.89863583 0.75 22.75 C2.04035156 22.66621094 3.33070313 22.58242188 4.66015625 22.49609375 C5.65917969 22.43550781 6.65820312 22.37492187 7.6875 22.3125 C7.6875 21.3225 7.6875 20.3325 7.6875 19.3125 C6.04201172 19.27382813 6.04201172 19.27382813 4.36328125 19.234375 C2.90881552 19.1780731 1.45438997 19.12072623 0 19.0625 C-0.72123047 19.04832031 -1.44246094 19.03414063 -2.18554688 19.01953125 C-7.0938024 18.79540999 -9.73158475 17.95503712 -13.3125 14.3125 C-14.88185594 11.17378812 -14.66451103 8.77394178 -14.3125 5.3125 C-10.20816069 -0.41871022 -6.49782007 -0.33335304 0 0 Z " fill="#0E0E0F" transform="translate(507.3125,269.6875)"/>
<path d="M0 0 C1.23234375 -0.02578125 2.4646875 -0.0515625 3.734375 -0.078125 C8.52633453 0.36912456 10.89454239 1.71224658 14.05078125 5.29296875 C15.8391891 9.70282132 15.56721357 13.85622556 15.4375 18.5625 C15.41719727 19.95952148 15.41719727 19.95952148 15.39648438 21.38476562 C15.36126882 23.67377646 15.31202099 25.96158458 15.25 28.25 C13.59385343 28.63218767 11.92542976 28.96395102 10.25 29.25 C8.70798861 27.70798861 9.06986932 26.21120553 9.00390625 24.06640625 C8.97103516 23.22142578 8.93816406 22.37644531 8.90429688 21.50585938 C8.84323634 19.71431719 8.78592743 17.9226431 8.73242188 16.13085938 C8.68118164 14.86145508 8.68118164 14.86145508 8.62890625 13.56640625 C8.6038501 12.78724854 8.57879395 12.00809082 8.55297852 11.20532227 C8.41100385 9.01734161 8.41100385 9.01734161 6.25 7.25 C3.75 6.91666667 3.75 6.91666667 1.25 7.25 C-1.1468665 9.6468665 -1.03281133 10.32028314 -1.1640625 13.6015625 C-1.22207031 14.87773437 -1.22207031 14.87773437 -1.28125 16.1796875 C-1.3121875 17.06914062 -1.343125 17.95859375 -1.375 18.875 C-1.43300781 20.22078125 -1.43300781 20.22078125 -1.4921875 21.59375 C-1.58659357 23.8122927 -1.67216748 26.03082403 -1.75 28.25 C-3.40614657 28.63218767 -5.07457024 28.96395102 -6.75 29.25 C-8.55279191 27.44720809 -7.88036605 24.70952299 -7.8828125 22.28125 C-7.88410156 21.07082031 -7.88539063 19.86039062 -7.88671875 18.61328125 C-7.88285156 17.33839844 -7.87898437 16.06351562 -7.875 14.75 C-7.87886719 13.47511719 -7.88273438 12.20023437 -7.88671875 10.88671875 C-7.88542969 9.67628906 -7.88414062 8.46585937 -7.8828125 7.21875 C-7.88168457 6.09919922 -7.88055664 4.97964844 -7.87939453 3.82617188 C-7.62605568 -1.21766122 -4.37351482 0.05444209 0 0 Z " fill="#0B0B0C" transform="translate(222.75,269.75)"/>
<path d="M0 0 C7.97566778 0.07302239 7.97566778 0.07302239 11.0625 1.9375 C15.74293548 6.87795967 15.60470221 12.63709096 15.5 19.0625 C15.49935547 19.82949219 15.49871094 20.59648437 15.49804688 21.38671875 C15.45341099 27.03067801 15.45341099 27.03067801 14.3125 29.3125 C12.6625 28.9825 11.0125 28.6525 9.3125 28.3125 C9.26351562 27.04792969 9.21453125 25.78335937 9.1640625 24.48046875 C9.0890262 22.82029053 9.01347873 21.16013536 8.9375 19.5 C8.9065625 18.66662109 8.875625 17.83324219 8.84375 16.97460938 C8.80507812 16.17216797 8.76640625 15.36972656 8.7265625 14.54296875 C8.67943115 13.43538208 8.67943115 13.43538208 8.63134766 12.30541992 C8.40415386 9.99900412 8.40415386 9.99900412 6.3125 7.3125 C3.8125 6.89583333 3.8125 6.89583333 1.3125 7.3125 C-1.03403846 9.65903846 -0.9571755 10.18869347 -1.06640625 13.375 C-1.10056641 14.17164063 -1.13472656 14.96828125 -1.16992188 15.7890625 C-1.19634766 16.62179687 -1.22277344 17.45453125 -1.25 18.3125 C-1.30987701 19.95848081 -1.37350242 21.60433079 -1.44140625 23.25 C-1.46533447 23.98089844 -1.4892627 24.71179688 -1.51391602 25.46484375 C-1.6875 27.3125 -1.6875 27.3125 -2.6875 29.3125 C-4.3375 28.9825 -5.9875 28.6525 -7.6875 28.3125 C-7.71636338 23.83334672 -7.73425187 19.35421709 -7.75 14.875 C-7.75837891 13.59560547 -7.76675781 12.31621094 -7.77539062 10.99804688 C-7.77861328 9.78310547 -7.78183594 8.56816406 -7.78515625 7.31640625 C-7.79039307 6.19049072 -7.79562988 5.0645752 -7.80102539 3.90454102 C-7.58068103 -1.12641832 -4.37490646 0.08685812 0 0 Z " fill="#0B0A0C" transform="translate(196.6875,269.6875)"/>
<path d="M0 0 C3.53571429 0.53571429 3.53571429 0.53571429 5 2 C4.98839844 2.85464844 4.97679687 3.70929688 4.96484375 4.58984375 C4.92135869 9.91365768 4.96569354 13.63227759 8.25390625 17.98046875 C10.03725603 19.69786249 11.86831763 21.36751025 13.75 22.9765625 C16 25 16 25 17 28 C16.34 28.66 15.68 29.32 15 30 C10.75280228 29.84831437 8.01437907 26.67183599 5 24 C5.01160156 25.07121094 5.02320313 26.14242188 5.03515625 27.24609375 C5.04453299 28.64322743 5.05363331 30.04036299 5.0625 31.4375 C5.07087891 32.14455078 5.07925781 32.85160156 5.08789062 33.58007812 C5.09653588 35.38693559 5.05220011 37.19387603 5 39 C4 40 4 40 1.4375 40.0625 C0.633125 40.041875 -0.17125 40.02125 -1 40 C-2.57667147 36.84665706 -2.16297041 33.46237759 -2.16796875 30 C-2.17129715 29.20851563 -2.17462555 28.41703125 -2.17805481 27.6015625 C-2.1831204 25.92708925 -2.18546325 24.2526059 -2.18530273 22.578125 C-2.18749127 20.01024865 -2.20565609 17.44280041 -2.22460938 14.875 C-2.22754291 13.25000147 -2.22952797 11.6250009 -2.23046875 10 C-2.23765427 9.22914063 -2.24483978 8.45828125 -2.25224304 7.6640625 C-2.2288272 2.2288272 -2.2288272 2.2288272 0 0 Z " fill="#1B1B1B" transform="translate(276,259)"/>
<path d="M0 0 C1.91503906 0.19897461 1.91503906 0.19897461 4 1 C5.28027344 2.67407227 5.28027344 2.67407227 6.359375 4.81640625 C6.89256348 5.84809937 6.89256348 5.84809937 7.43652344 6.90063477 C7.8699707 7.77905029 8.30341797 8.65746582 8.75 9.5625 C10.1525 12.346875 11.555 15.13125 13 18 C16.3 12.06 19.6 6.12 23 0 C25.475 0.495 25.475 0.495 28 1 C27.44950705 5.26700508 26.45328701 8.57403688 24.49609375 12.3984375 C24.00302734 13.37167969 23.50996094 14.34492188 23.00195312 15.34765625 C22.48568359 16.34667969 21.96941406 17.34570312 21.4375 18.375 C20.91736328 19.39722656 20.39722656 20.41945313 19.86132812 21.47265625 C18.58139526 23.98555196 17.29412869 26.49439392 16 29 C14.35 29 12.7 29 11 29 C9.37431783 25.91702588 7.74957416 22.83355811 6.125 19.75 C5.43470703 18.44095703 5.43470703 18.44095703 4.73046875 17.10546875 C4.28574219 16.26113281 3.84101563 15.41679687 3.3828125 14.546875 C2.97434082 13.77182617 2.56586914 12.99677734 2.14501953 12.19824219 C1.76716309 11.47282227 1.38930664 10.74740234 1 10 C0.62472168 9.30165039 0.24944336 8.60330078 -0.13720703 7.88378906 C-1.23966233 5.47673046 -1.2121689 3.61674971 -1 1 C-0.67 0.67 -0.34 0.34 0 0 Z " fill="#100F11" transform="translate(319,270)"/>
<path d="M0 0 C1.67542976 0.28604898 3.34385343 0.61781233 5 1 C5.02467917 6.23274388 5.04285003 11.46545403 5.05493164 16.69824219 C5.05996711 18.47917267 5.06679581 20.260099 5.07543945 22.04101562 C5.08753942 24.59766665 5.09323609 27.15426312 5.09765625 29.7109375 C5.10281754 30.50994476 5.10797882 31.30895203 5.11329651 32.13217163 C5.11387171 37.77225659 5.11387171 37.77225659 4 40 C2.35 39.67 0.7 39.34 -1 39 C-0.94457031 38.33355469 -0.88914062 37.66710937 -0.83203125 36.98046875 C-0.79631212 31.87263318 -1.16437624 28.98406534 -4.55078125 24.99609375 C-6.06299969 23.52711665 -7.60489275 22.1417218 -9.22583008 20.79370117 C-10.7265625 19.5078125 -10.7265625 19.5078125 -13 17 C-12.8359375 14.1796875 -12.8359375 14.1796875 -12 12 C-7.71193127 12.47645208 -5.73352513 13.65902484 -3 17 C-3 17.66 -3 18.32 -3 19 C-2.34 19 -1.68 19 -1 19 C-1.01160156 17.71222656 -1.02320313 16.42445313 -1.03515625 15.09765625 C-1.0445327 13.41927228 -1.05363305 11.74088674 -1.0625 10.0625 C-1.07087891 9.21236328 -1.07925781 8.36222656 -1.08789062 7.48632812 C-1.09111328 6.67744141 -1.09433594 5.86855469 -1.09765625 5.03515625 C-1.10289307 4.2862915 -1.10812988 3.53742676 -1.11352539 2.76586914 C-1 1 -1 1 0 0 Z " fill="#0E0D0F" transform="translate(300,259)"/>
<path d="M0 0 C2.0625 0.25 2.0625 0.25 4 1 C5.55043334 4.10086669 5.1420075 7.37900766 5.1328125 10.78125 C5.13376923 11.55053833 5.13472595 12.31982666 5.13571167 13.11242676 C5.13639254 14.73982831 5.13454473 16.36723257 5.13037109 17.99462891 C5.1250215 20.48997073 5.13031919 22.98513255 5.13671875 25.48046875 C5.13605795 27.05989623 5.13477675 28.6393236 5.1328125 30.21875 C5.13483673 30.9677356 5.13686096 31.71672119 5.13894653 32.48840332 C5.11496122 37.77007757 5.11496122 37.77007757 4 40 C2.33388095 40.042721 0.66617115 40.04063832 -1 40 C-3.04513053 37.95486947 -2.16404679 33.69094822 -2.16796875 30.87890625 C-2.17129715 30.06381088 -2.17462555 29.24871552 -2.17805481 28.40892029 C-2.18312742 26.68139207 -2.18546303 24.95385402 -2.18530273 23.22631836 C-2.18748792 20.57714755 -2.20563621 17.92839384 -2.22460938 15.27929688 C-2.22754344 13.6041681 -2.22952815 11.92903733 -2.23046875 10.25390625 C-2.23765427 9.45803604 -2.24483978 8.66216583 -2.25224304 7.84217834 C-2.22882227 2.22882227 -2.22882227 2.22882227 0 0 Z " fill="#232223" transform="translate(181,259)"/>
<path d="M0 0 C4.45850936 0.79616239 5.90783917 1.93313458 8.5 5.625 C9.125 9.125 9.125 9.125 8.5 12.625 C5.90783917 16.31686542 4.45850936 17.45383761 0 18.25 C-4.45850936 17.45383761 -5.90783917 16.31686542 -8.5 12.625 C-9.125 9.125 -9.125 9.125 -8.5 5.625 C-5.90783917 1.93313458 -4.45850936 0.79616239 0 0 Z " fill="#F6F6F6" transform="translate(256.5,275.375)"/>
<path d="M0 0 C3.5 0.6875 3.5 0.6875 6.4375 3.3125 C8.68818265 6.99543525 9.39426216 8.48446786 8.5 12.6875 C6.4375 15.5625 6.4375 15.5625 3.5 17.6875 C-0.61629392 18.34904724 -2.72693494 18.08225662 -6.4375 16.1875 C-8.79738696 13.32703096 -9.23661074 11.36383097 -8.98046875 7.66015625 C-7.77599328 2.71495209 -4.73177421 0.92945565 0 0 Z " fill="#F6F6F7" transform="translate(442.5,275.3125)"/>
<path d="M0 0 C3.5 0.6875 3.5 0.6875 6.4375 3.3125 C8.68818265 6.99543525 9.39426216 8.48446786 8.5 12.6875 C6.50028288 15.56209336 5.01060972 17.31657801 1.52734375 18.171875 C-2.17600428 18.42107225 -4.13947388 17.98493405 -7 15.625 C-8.89475662 11.91443494 -9.16154724 9.80379392 -8.5 5.6875 C-5.91370196 2.00398461 -4.43024874 0.87022743 0 0 Z " fill="#F5F5F5" transform="translate(475.5,275.3125)"/>
<path d="M0 0 C1.65 0.33 3.3 0.66 5 1 C5 9.91 5 18.82 5 28 C3.35 28.33 1.7 28.66 0 29 C-1.80279191 27.19720809 -1.13036605 24.45952299 -1.1328125 22.03125 C-1.13410156 20.82082031 -1.13539063 19.61039062 -1.13671875 18.36328125 C-1.13285156 17.08839844 -1.12898438 15.81351562 -1.125 14.5 C-1.12886719 13.22511719 -1.13273437 11.95023437 -1.13671875 10.63671875 C-1.13542969 9.42628906 -1.13414062 8.21585937 -1.1328125 6.96875 C-1.13168457 5.84919922 -1.13055664 4.72964844 -1.12939453 3.57617188 C-1 1 -1 1 0 0 Z " fill="#0B0A0B" transform="translate(309,270)"/>
<path d="M0 0 C2.4375 1.3125 2.4375 1.3125 4 3 C4 3.99 4 4.98 4 6 C-0.95 6 -5.9 6 -11 6 C-9.37304347 -0.50782611 -6.13043691 -0.53775762 0 0 Z " fill="#DBDBDB" transform="translate(366,276)"/>
<path d="M0 0 C2.45862401 -0.05383848 4.9160755 -0.09359038 7.375 -0.125 C8.42300781 -0.15013672 8.42300781 -0.15013672 9.4921875 -0.17578125 C11.32897486 -0.19344267 13.16601963 -0.10303261 15 0 C15.66 0.66 16.32 1.32 17 2 C12.47075673 4.65126436 9.24957258 5.58328584 4 5 C1.5625 3.625 1.5625 3.625 0 2 C0 1.34 0 0.68 0 0 Z " fill="#F6F7F7" transform="translate(355,288)"/>
<path d="M0 0 C1.39456452 0.00667256 2.78911118 0.01863093 4.18359375 0.03515625 C4.89451172 0.03966797 5.60542969 0.04417969 6.33789062 0.04882812 C8.09899388 0.06064761 9.86005411 0.07858362 11.62109375 0.09765625 C11.29109375 0.75765625 10.96109375 1.41765625 10.62109375 2.09765625 C7.6796875 2.51171875 7.6796875 2.51171875 4.05859375 2.72265625 C2.86105469 2.79742187 1.66351563 2.8721875 0.4296875 2.94921875 C-0.49714844 2.99820312 -1.42398437 3.0471875 -2.37890625 3.09765625 C-2.37890625 3.75765625 -2.37890625 4.41765625 -2.37890625 5.09765625 C4.55109375 5.59265625 4.55109375 5.59265625 11.62109375 6.09765625 C11.62109375 6.42765625 11.62109375 6.75765625 11.62109375 7.09765625 C9.16246974 7.15149473 6.70501825 7.19124663 4.24609375 7.22265625 C3.19808594 7.24779297 3.19808594 7.24779297 2.12890625 7.2734375 C0.29211889 7.29109892 -1.54492588 7.20068886 -3.37890625 7.09765625 C-4.03890625 6.43765625 -4.69890625 5.77765625 -5.37890625 5.09765625 C-4.7397431 0.87917944 -4.43079179 0.12805757 0 0 Z " fill="#363636" transform="translate(504.37890625,292.90234375)"/>
<path d="M0 0 C2.475 0.495 2.475 0.495 5 1 C5 9.91 5 18.82 5 28 C3.35 28.33 1.7 28.66 0 29 C1 27 1 27 3 26 C3 18.08 3 10.16 3 2 C2.01 2 1.02 2 0 2 C0 1.34 0 0.68 0 0 Z " fill="#000000" transform="translate(452,270)"/>
<path d="M0 0 C1.67542976 0.28604898 3.34385343 0.61781233 5 1 C4.67 2.65 4.34 4.3 4 6 C2.68 5.67 1.36 5.34 0 5 C-0.5625 3.0625 -0.5625 3.0625 -1 1 C-0.67 0.67 -0.34 0.34 0 0 Z " fill="#09090A" transform="translate(309,259)"/>
<path d="M0 0 C1.67542976 0.28604898 3.34385343 0.61781233 5 1 C4.625 3.4375 4.625 3.4375 4 6 C3.01 6.495 3.01 6.495 2 7 C2 5.35 2 3.7 2 2 C1.01 1.67 0.02 1.34 -1 1 C-0.67 0.67 -0.34 0.34 0 0 Z M-3 2 C-1 3 -1 3 -1 3 Z " fill="#1C1C1D" transform="translate(369,290)"/>
<path d="M0 0 C1.51516221 3.03032442 1.17028053 5.65114962 1 9 C0 11.9375 0 11.9375 -1 14 C-1.33 14 -1.66 14 -2 14 C-1.85970581 11.8537974 -1.71261836 9.70803782 -1.5625 7.5625 C-1.48128906 6.36753906 -1.40007812 5.17257812 -1.31640625 3.94140625 C-1 1 -1 1 0 0 Z " fill="#030303" transform="translate(135,277)"/>
</svg>
